<svg width="400" height="72" viewBox="0 0 400 72" fill="none" xmlns="http://www.w3.org/2000/svg">
<path d="M93.0958 5.25969C88.0099 -2.27926 72.757 -1.464 55.0851 6.1053C48.518 8.92465 41.6146 12.6732 34.7774 17.2748C9.54925 34.2516 -5.25061 56.3985 1.72634 66.7406C8.70329 77.0827 34.8085 71.7016 60.0454 54.7248C61.4164 53.801 62.757 52.8634 64.0672 51.9122C45.918 63.1262 27.3657 65.5706 21.689 57.1537C16.0583 48.8137 25.085 32.7715 42.0109 20.2358C43.0884 19.436 44.1973 18.6525 45.3374 17.8851C64.3839 5.07291 84.676 1.87323 90.6605 10.7426C92.9729 14.1756 92.8088 18.9094 90.6349 24.1684C90.564 24.3411 90.4891 24.5164 90.4114 24.6897C90.512 24.5164 90.614 24.3411 90.7112 24.1684C95.0321 16.554 96.1441 9.78104 93.0958 5.25969Z" fill="#D39624"/>
<path d="M135.865 31.1106H124.259L122.928 35.7904H133.885L132.555 40.4075H121.594L119.149 49.0173H112.648L119.056 26.4949H137.165L135.865 31.1106Z" fill="white"/>
<path d="M139.702 49.0173H133.761L140.168 26.4949H146.11L139.702 49.0173Z" fill="white"/>
<path d="M165.148 38.9759C165.152 39.5831 165.095 40.1892 164.978 40.7851C164.864 41.3489 164.723 41.9313 164.555 42.5323H150.475C150.376 42.9524 150.324 43.3821 150.32 43.8135C150.32 44.7706 150.603 45.436 151.168 45.8095C151.733 46.1831 152.45 46.3701 153.32 46.3706C154.25 46.3706 155.055 46.2251 155.736 45.9343C156.418 45.6434 156.996 45.0815 157.47 44.2485H163.727C163.248 45.2751 162.563 46.193 161.716 46.9458C160.929 47.6323 160.035 48.1858 159.07 48.5844C158.113 48.9784 157.111 49.2502 156.086 49.3936C155.083 49.5369 154.07 49.6096 153.057 49.6114C152.084 49.608 151.113 49.5352 150.15 49.3936C149.176 49.2596 148.23 48.9647 147.352 48.521C146.499 48.0856 145.771 47.4413 145.235 46.6484C144.678 45.8392 144.4 44.7785 144.401 43.4663C144.401 41.8236 144.726 40.3367 145.375 39.0056C146.002 37.7005 146.91 36.5494 148.032 35.634C149.208 34.6916 150.546 33.9729 151.981 33.5139C153.538 33.0069 155.166 32.7544 156.803 32.7661C157.825 32.7654 158.844 32.8645 159.847 33.0621C160.791 33.2383 161.696 33.5808 162.52 34.0736C163.299 34.546 163.953 35.1987 164.426 35.9765C164.907 36.7673 165.148 37.7671 165.148 38.9759ZM159.236 38.1957C159.251 37.8062 159.166 37.4192 158.988 37.0723C158.833 36.7926 158.609 36.5565 158.338 36.3858C158.053 36.214 157.738 36.0978 157.409 36.0433C157.052 35.9796 156.691 35.9471 156.329 35.9462C155.171 35.9462 154.191 36.2532 153.388 36.8673C152.584 37.4814 151.954 38.3079 151.497 39.3468H159.05L159.174 38.7844C159.216 38.5899 159.237 38.3914 159.236 38.1924V38.1957Z" fill="white"/>
<path d="M179.109 41.2498L183.38 49.0173H177.097L174.62 43.6227L169.328 49.0173H162.208L172.238 40.3758L168.306 33.3575H174.593L176.696 38.0103L181.185 33.3575H187.995L179.109 41.2498Z" fill="white"/>
<path d="M191.026 49.0173H185.084L189.54 33.3575H195.482L191.026 49.0173ZM196.473 30.8611H189.974L191.212 26.4942H197.714L196.473 30.8611Z" fill="white"/>
<path d="M219.257 38.7231C219.268 40.1842 218.983 41.6325 218.421 42.9814C217.88 44.2884 217.082 45.4739 216.074 46.4678C215.067 47.4617 213.87 48.244 212.555 48.7685C211.123 49.342 209.593 49.6293 208.05 49.6141C207.429 49.614 206.809 49.5723 206.194 49.4893C205.582 49.4084 204.983 49.2458 204.414 49.0058C203.848 48.7682 203.321 48.4475 202.85 48.0544C202.357 47.6375 201.965 47.115 201.702 46.5257L200.867 49.0207H195.11C195.251 48.6039 195.401 48.1769 195.559 47.7395C195.717 47.302 195.855 46.8651 195.975 46.4286L201.644 26.5009H207.585L204.984 35.6717C205.937 34.824 207.011 34.1243 208.172 33.5962C209.417 33.0353 210.769 32.7531 212.135 32.7694C213.029 32.7681 213.919 32.8888 214.781 33.1282C215.603 33.3501 216.376 33.7256 217.059 34.2347C217.721 34.735 218.265 35.374 218.653 36.1067C219.057 36.8507 219.258 37.7228 219.257 38.7231ZM212.787 39.5687C212.787 38.4897 212.457 37.71 211.796 37.2294C211.135 36.7489 210.31 36.5097 209.321 36.5119C208.505 36.5098 207.699 36.6968 206.968 37.0581C206.233 37.4161 205.567 37.9018 205.002 38.4924C204.43 39.0919 203.969 39.7878 203.641 40.5478C203.306 41.299 203.132 42.1115 203.13 42.9335C203.13 43.9949 203.46 44.7906 204.12 45.3207C204.78 45.8507 205.605 46.1157 206.594 46.1157C207.437 46.1223 208.27 45.9357 209.029 45.5701C209.77 45.2152 210.437 44.723 210.994 44.1197C211.556 43.5081 212.002 42.7998 212.31 42.0293C212.626 41.2459 212.786 40.4085 212.782 39.5639L212.787 39.5687Z" fill="white"/>
<path d="M225.014 49.0173H219.073L225.48 26.4949H231.422L225.014 49.0173Z" fill="white"/>
<path d="M250.149 38.9759C250.153 39.5832 250.096 40.1892 249.979 40.7851C249.865 41.3489 249.724 41.9313 249.555 42.5323H235.477C235.378 42.9524 235.326 43.3821 235.322 43.8135C235.322 44.7706 235.604 45.436 236.169 45.8095C236.733 46.1831 237.45 46.3701 238.32 46.3706C239.249 46.3706 240.055 46.2251 240.737 45.9343C241.418 45.6434 241.997 45.0815 242.471 44.2485H248.73C248.25 45.2746 247.566 46.1924 246.719 46.9458C245.932 47.6322 245.038 48.1857 244.073 48.5844C243.116 48.9785 242.114 49.2504 241.089 49.3936C240.086 49.5372 239.073 49.61 238.06 49.6114C237.087 49.608 236.116 49.5352 235.153 49.3936C234.179 49.2591 233.234 48.9643 232.356 48.521C231.503 48.0864 230.774 47.442 230.239 46.6484C229.683 45.8392 229.404 44.7785 229.404 43.4663C229.404 41.8236 229.729 40.3367 230.378 39.0056C231.006 37.7008 231.913 36.5497 233.035 35.634C234.21 34.6921 235.547 33.9735 236.981 33.5139C238.538 33.0069 240.166 32.7544 241.803 32.7661C242.825 32.7654 243.845 32.8646 244.848 33.0621C245.792 33.2389 246.697 33.5814 247.521 34.0736C248.3 34.5463 248.953 35.199 249.426 35.9765C249.908 36.7673 250.149 37.7671 250.149 38.9759ZM244.237 38.1957C244.253 37.8062 244.167 37.4193 243.989 37.0723C243.834 36.7924 243.61 36.5563 243.339 36.3858C243.054 36.2141 242.739 36.0978 242.411 36.0433C242.053 35.9804 241.691 35.9491 241.327 35.9496C240.172 35.9496 239.191 36.2564 238.386 36.87C237.581 37.4837 236.95 38.3104 236.495 39.3502H244.052C244.092 39.1636 244.133 38.9762 244.175 38.7878C244.217 38.5932 244.237 38.3947 244.237 38.1957Z" fill="white"/>
<path d="M288.997 32.0466C289.006 32.6651 288.944 33.2826 288.811 33.8868H282.063C282.083 33.7809 282.099 33.6751 282.109 33.5753C282.12 33.4614 282.126 33.3471 282.125 33.2327C282.125 32.669 282.022 32.201 281.815 31.8288C281.624 31.4692 281.341 31.1665 280.995 30.9515C280.633 30.7357 280.235 30.5879 279.819 30.5152C279.366 30.4315 278.905 30.3898 278.443 30.3904C277.326 30.3742 276.218 30.5977 275.194 31.0459C274.259 31.4577 273.409 32.0394 272.687 32.7614C272.187 33.2932 271.741 33.8733 271.355 34.493C270.939 35.155 270.587 35.8549 270.303 36.5834C270.015 37.3177 269.787 38.0741 269.621 38.8451C269.462 39.5625 269.38 40.2946 269.374 41.0293C269.374 41.7566 269.487 42.3752 269.712 42.885C269.925 43.3774 270.254 43.811 270.672 44.1487C271.099 44.4893 271.595 44.734 272.126 44.8662C272.734 45.0182 273.358 45.0918 273.984 45.0853C275.247 45.1028 276.494 44.8133 277.62 44.2417C278.704 43.678 279.494 42.7211 279.989 41.3711H286.802C286.327 42.9922 285.621 44.3339 284.685 45.3962C283.772 46.4362 282.669 47.2933 281.435 47.9222C280.186 48.5527 278.851 48.9943 277.472 49.2324C276.068 49.4809 274.645 49.6061 273.218 49.6067C271.921 49.6075 270.629 49.4609 269.365 49.1697C268.156 48.9041 267.004 48.4289 265.96 47.7658C264.962 47.1252 264.133 46.253 263.545 45.2236C262.936 44.1739 262.632 42.8792 262.632 41.3394C262.623 39.2155 263.072 37.1145 263.947 35.1788C264.785 33.2899 265.964 31.5715 267.425 30.1099C268.187 29.3616 269.041 28.7117 269.965 28.1753C270.892 27.6359 271.874 27.1966 272.894 26.8651C273.923 26.5306 274.98 26.2851 276.051 26.1314C278.236 25.817 280.454 25.8231 282.637 26.1496C283.726 26.3 284.785 26.6154 285.779 27.0849C286.697 27.5154 287.495 28.1636 288.105 28.973C288.7 29.7737 288.997 30.7982 288.997 32.0466Z" fill="white"/>
<path d="M293.081 49.0173H287.139L291.595 33.3575H297.537L293.081 49.0173ZM298.528 30.8611H292.027L293.266 26.4942H299.767L298.528 30.8611Z" fill="white"/>
<path d="M313.173 37.6947C312.661 37.6084 312.143 37.5667 311.625 37.57C310.844 37.5662 310.069 37.6979 309.334 37.9591C308.623 38.2133 307.958 38.5823 307.367 39.0515C306.775 39.5234 306.263 40.0868 305.85 40.7204C305.422 41.3756 305.093 42.0905 304.875 42.8419L303.111 49.0187H297.169L300.701 36.5713C300.866 36.0319 301.016 35.4962 301.15 34.9644C301.284 34.4326 301.403 33.8974 301.506 33.3588H307.259L306.453 36.5713C307.292 35.4083 308.382 34.4487 309.642 33.7634C310.909 33.0908 312.325 32.7476 313.76 32.7654H314.194C314.319 32.7638 314.443 32.7744 314.566 32.7971L313.173 37.6947Z" fill="white"/>
<path d="M333.387 38.0056V38.4581C333.382 38.6106 333.361 38.7621 333.325 38.9105H327.134C327.154 38.8284 327.165 38.7442 327.165 38.6597V38.4102C327.165 37.5583 326.908 36.9761 326.394 36.6637C325.879 36.3512 325.242 36.1953 324.482 36.1957C323.621 36.184 322.774 36.4049 322.029 36.835C321.302 37.2574 320.67 37.8256 320.173 38.5039C319.158 39.915 318.604 41.6046 318.586 43.3422C318.586 44.3402 318.874 45.0629 319.45 45.5102C320.027 45.9575 320.789 46.1809 321.736 46.1804C322.744 46.1804 323.619 45.9258 324.361 45.4164C325.103 44.9071 325.628 44.1539 325.935 43.1568H332.175C331.741 44.4038 331.152 45.4378 330.411 46.2587C329.682 47.0698 328.811 47.7412 327.84 48.2398C326.841 48.7479 325.772 49.1043 324.667 49.2972C323.498 49.5073 322.311 49.6116 321.123 49.6087C320.096 49.6067 319.07 49.5339 318.054 49.3909C317.056 49.2608 316.085 48.9755 315.175 48.5453C314.324 48.1427 313.589 47.5309 313.039 46.7671C312.482 45.9975 312.203 44.9891 312.203 43.7421C312.183 42.18 312.548 40.637 313.267 39.2497C313.969 37.9098 314.942 36.7306 316.125 35.7877C317.366 34.8066 318.77 34.0515 320.273 33.5571C321.858 33.0237 323.521 32.7547 325.195 32.7607C326.092 32.7674 326.988 32.8457 327.873 32.9947C328.794 33.1384 329.69 33.4108 330.534 33.8039C331.324 34.1698 332.017 34.7144 332.56 35.3946C333.111 36.0739 333.387 36.9442 333.387 38.0056Z" fill="white"/>
<path d="M353.599 45.8042C353.433 46.3436 353.284 46.8793 353.151 47.4111C353.018 47.9429 352.899 48.4783 352.794 49.0173H347.038L347.687 46.2101C346.673 47.2007 345.515 48.0316 344.251 48.6741C342.982 49.305 341.582 49.6256 340.165 49.6094C339.437 49.6094 338.71 49.5312 337.999 49.3761C337.3 49.2295 336.631 48.9657 336.02 48.5959C335.422 48.2334 334.922 47.73 334.564 47.1299C334.192 46.5162 334.007 45.752 334.008 44.8372C334.011 44.4133 334.052 43.9905 334.131 43.5742C334.214 43.1246 334.307 42.7139 334.41 42.3422L336.917 33.3568H342.858L340.568 41.3738C340.466 41.6792 340.388 41.9922 340.336 42.3098C340.284 42.6189 340.259 42.9317 340.259 43.2451C340.259 44.182 340.522 44.8374 341.047 45.2114C341.572 45.5854 342.27 45.7734 343.14 45.7752C343.888 45.7817 344.629 45.6204 345.306 45.3031C345.961 44.9958 346.557 44.5789 347.071 44.0705C347.594 43.5513 348.037 42.9575 348.386 42.3085C348.742 41.6542 349.025 40.9638 349.233 40.2491L351.184 33.3548H357.125L353.599 45.8042Z" fill="white"/>
<path d="M361.987 49.0173H356.046L360.502 33.3575H366.443L361.987 49.0173ZM367.436 30.8611H360.933L362.171 26.4942H368.671L367.436 30.8611Z" fill="white"/>
<path d="M381.521 37.0689H376.63C376.547 37.3836 376.402 37.8557 376.196 38.485C375.989 39.1144 375.783 39.784 375.577 40.4938C375.371 41.1987 375.191 41.8796 375.036 42.5364C374.905 43.0313 374.828 43.5388 374.805 44.0502C374.794 44.3173 374.858 44.5821 374.991 44.8142C375.108 45.0052 375.273 45.1614 375.471 45.2667C375.683 45.3757 375.914 45.4443 376.151 45.469C376.413 45.5011 376.677 45.5171 376.941 45.5169C377.313 45.5169 377.685 45.496 378.055 45.4542L379.17 45.3294L378.112 49.0106C377.451 49.1144 376.791 49.203 376.131 49.2762C375.473 49.347 374.812 49.3821 374.15 49.3814C373.55 49.3814 372.915 49.3502 372.245 49.2877C371.608 49.2339 370.982 49.0867 370.388 48.8507C369.837 48.635 369.352 48.2805 368.979 47.8217C368.609 47.3645 368.423 46.7408 368.421 45.9505C368.423 45.5889 368.454 45.228 368.515 44.8716C368.576 44.5075 368.659 44.1472 368.762 43.7926L370.681 37.0534H367.091L368.143 33.3446H371.735L372.633 30.1625L379.192 27.9844L377.676 33.35H382.567L381.521 37.0689Z" fill="white"/>
<path d="M400 36.7264C400.004 37.1553 399.973 37.5838 399.907 38.0076H393.966C394.003 37.8338 394.024 37.6568 394.028 37.4789C394.045 37.2015 393.969 36.9264 393.812 36.6967C393.667 36.5079 393.476 36.358 393.259 36.2604C393.023 36.1541 392.773 36.0858 392.516 36.0581C392.252 36.0263 391.986 36.0099 391.719 36.0089C391.441 36.0117 391.163 36.0379 390.889 36.0871C390.586 36.1372 390.291 36.2263 390.011 36.3521C389.748 36.4675 389.512 36.6376 389.319 36.8511C389.129 37.0767 389.03 37.3655 389.042 37.6603C389.042 38.1396 389.346 38.4882 389.953 38.7062C390.737 38.9747 391.535 39.1985 392.344 39.3765L393.486 39.626C394.164 39.7716 394.817 39.938 395.444 40.125C396.025 40.2929 396.584 40.5285 397.11 40.827C397.568 41.0864 397.967 41.4379 398.282 41.8594C398.59 42.2918 398.747 42.8128 398.73 43.3429C398.73 44.4667 398.431 45.4234 397.833 46.2128C397.202 47.0291 396.393 47.6907 395.468 48.1468C394.411 48.6713 393.285 49.0442 392.124 49.2547C390.874 49.4935 389.605 49.6134 388.332 49.6127C387.589 49.6127 386.764 49.5712 385.857 49.488C384.98 49.4124 384.116 49.2238 383.287 48.927C382.531 48.6669 381.844 48.2406 381.276 47.6795C380.739 47.14 380.47 46.4016 380.471 45.4643C380.471 45.2148 380.476 44.9707 380.486 44.7306C380.492 44.5263 380.519 44.323 380.565 44.1237H386.631C386.589 44.3392 386.568 44.5583 386.569 44.7778C386.556 45.0634 386.632 45.3461 386.786 45.587C386.931 45.7958 387.128 45.9626 387.359 46.0705C387.601 46.1851 387.859 46.2628 388.125 46.3011C388.396 46.3424 388.671 46.3631 388.945 46.3632C389.318 46.3619 389.69 46.3362 390.06 46.2863C390.433 46.2393 390.798 46.1391 391.143 45.9889C391.461 45.8535 391.742 45.6456 391.964 45.382C392.181 45.1217 392.289 44.7731 392.288 44.3362C392.288 43.9621 392.041 43.6659 391.546 43.4474C390.944 43.1949 390.323 42.9919 389.688 42.8405L388.482 42.5593C387.739 42.3943 387.016 42.2073 386.314 41.9983C385.666 41.8134 385.043 41.5514 384.457 41.2181C383.953 40.9348 383.511 40.553 383.157 40.0953C382.826 39.6588 382.661 39.118 382.662 38.4729C382.647 37.5576 382.96 36.6673 383.544 35.9617C384.17 35.2128 384.945 34.601 385.819 34.1646C386.792 33.673 387.829 33.3178 388.9 33.1093C389.985 32.8841 391.089 32.7688 392.197 32.7654C392.858 32.7654 393.637 32.8007 394.534 32.8713C395.402 32.9384 396.259 33.1061 397.088 33.371C397.853 33.6083 398.556 34.0128 399.146 34.5551C399.715 35.0878 400 35.8116 400 36.7264Z" fill="white"/>
<path d="M56.2342 32.0418C56.232 32.6279 56.1659 33.2119 56.0371 33.7836C55.9028 34.3853 55.7164 34.9742 55.4801 35.5436C55.2454 36.1125 54.9512 36.6549 54.6024 37.162C54.269 37.6513 53.8745 38.0961 53.4283 38.4857C52.7755 39.0697 52.0348 39.5475 51.2334 39.9018C50.4359 40.249 49.6015 40.5046 48.7462 40.6638C47.828 40.8373 46.8983 40.9434 45.9646 40.9814C44.9856 41.0232 43.9603 41.0439 42.8886 41.0434H39.0558L36.7995 49.0234H30.3046L36.7023 26.5346H48.3823C49.3768 26.5319 50.3691 26.6257 51.3455 26.8145C52.2262 26.9768 53.0728 27.2878 53.8489 27.7343C54.5584 28.1474 55.1532 28.7311 55.5793 29.4322C56.0168 30.1349 56.2351 31.0047 56.2342 32.0418ZM49.3734 32.851C49.3889 32.4865 49.2871 32.1266 49.0831 31.824C48.8844 31.5526 48.6178 31.338 48.31 31.2016C47.9666 31.05 47.6026 30.9502 47.2298 30.9056C46.8353 30.8543 46.438 30.8281 46.0402 30.8274H41.9569L40.288 36.7507H44.615C45.995 36.7507 47.133 36.4335 48.0292 35.7992C48.9253 35.1649 49.3734 34.1835 49.3734 32.8551V32.851Z" fill="white"/>
<path d="M77.3717 31.1396H65.7841L64.4582 35.812H75.3955L74.0662 40.421H63.1261L60.6848 49.0173H54.1912L60.5916 26.5347H78.672L77.3717 31.1396Z" fill="white"/>
<path d="M103.242 32.0735C103.251 32.6911 103.189 33.3076 103.057 33.9111H96.3169C96.3365 33.8052 96.3527 33.7 96.3635 33.6002C96.3744 33.4864 96.3796 33.372 96.379 33.2577C96.379 32.6939 96.276 32.2266 96.0698 31.8557C95.8788 31.4979 95.5963 31.197 95.2509 30.9838C94.8893 30.7678 94.4911 30.62 94.0761 30.5475C93.6224 30.4632 93.1617 30.4215 92.7002 30.4228C91.5853 30.408 90.4802 30.6322 89.4595 31.0803C88.5263 31.4922 87.6775 32.0732 86.956 32.7937C86.4576 33.3239 86.0128 33.9019 85.628 34.5193C85.2123 35.18 84.8604 35.8786 84.5768 36.6057C84.29 37.339 84.0629 38.0942 83.8976 38.864C83.7383 39.5797 83.6552 40.3102 83.6498 41.0434C83.6498 41.7712 83.7624 42.3891 83.9874 42.8971C84.2008 43.3883 84.5297 43.8209 84.9461 44.1581C85.3731 44.4984 85.8684 44.7428 86.3984 44.8749C87.0048 45.0261 87.628 45.0993 88.253 45.0927C89.5148 45.1113 90.7622 44.8226 91.8873 44.2518C92.9675 43.6881 93.7552 42.7328 94.2503 41.386H101.048C100.574 43.007 99.8689 44.3463 98.9318 45.4036C98.0185 46.4429 96.9158 47.2995 95.6823 47.9276C94.4357 48.5569 93.1023 48.9975 91.7259 49.2351C90.3232 49.484 88.9013 49.6092 87.4766 49.6094C86.1814 49.6098 84.8904 49.4634 83.6282 49.1731C82.4219 48.9076 81.2713 48.4331 80.2289 47.7711C79.2323 47.1317 78.405 46.2615 77.8173 45.2343C77.2101 44.186 76.9065 42.8933 76.9065 41.3563C76.899 39.2346 77.3482 37.1362 78.2237 35.2031C79.0607 33.3165 80.2395 31.6005 81.7007 30.1416C82.4616 29.395 83.3128 28.746 84.2345 28.2097C85.1593 27.6728 86.1386 27.2356 87.1559 26.9055C88.1837 26.5718 89.2383 26.3268 90.3081 26.1732C91.3881 26.0179 92.4779 25.9401 93.5691 25.9406C94.6806 25.9439 95.7905 26.0269 96.8901 26.1887C97.9775 26.3385 99.0356 26.6537 100.028 27.1233C100.944 27.5543 101.741 28.2024 102.35 29.0114C102.944 29.8071 103.241 30.8278 103.242 32.0735Z" fill="white"/>
</svg>
