<svg xmlns="http://www.w3.org/2000/svg" viewBox="0 0 3779.2 681.07"><g id="Layer_2" data-name="Layer 2"><g id="Logos"><path d="M879.57,49.75c-48.05-71.31-192.16-63.6-359.1,8C458.42,84.42,393.2,119.88,328.6,163.41,90.22,324-49.61,533.5,16.31,631.33s312.57,46.93,551-113.66q19.43-13.11,38-26.61c-171.48,106.08-346.76,129.2-400.39,49.58C151.72,461.75,237,310,396.9,191.42q15.27-11.35,31.43-22.24C608.28,48,800,17.72,856.54,101.62c21.85,32.47,20.3,77.25-.24,127-.67,1.63-1.38,3.29-2.11,4.93.95-1.64,1.9-3.3,2.83-4.93C897.86,156.59,908.37,92.52,879.57,49.75Z" style="fill:#d39624"/><path d="M1283.65,294.29H1174l-12.58,44.27h103.53l-12.57,43.67H1148.82l-23.1,81.45H1064.3l60.54-213.06h171.09Z" style="fill:#00126f"/><path d="M1319.91,463.68h-56.15l60.54-213.06h56.15Z" style="fill:#00126f"/><path d="M1560.32,368.66a86.55,86.55,0,0,1-1.61,17.11q-1.62,8-4,16.53H1421.69a54.94,54.94,0,0,0-1.46,12.1q0,13.58,8,18.88t20.34,5.31q13.17,0,22.83-4.13t16.38-15.93h59.11a78.6,78.6,0,0,1-19,25.52,90.57,90.57,0,0,1-25,15.5,116.44,116.44,0,0,1-28.19,7.67,205.37,205.37,0,0,1-28.62,2.06,193.3,193.3,0,0,1-27.46-2.06,84,84,0,0,1-26.44-8.26,53.51,53.51,0,0,1-20-17.71q-7.89-11.5-7.88-30.1,0-23.31,9.2-42.2a93.32,93.32,0,0,1,25.11-31.87A116,116,0,0,1,1435.92,317a143.58,143.58,0,0,1,45.55-7.08,148.45,148.45,0,0,1,28.76,2.8,76.69,76.69,0,0,1,25.26,9.59,53.62,53.62,0,0,1,18,18Q1560.32,351.54,1560.32,368.66Zm-55.86-7.38a21.43,21.43,0,0,0-2.34-10.63,18,18,0,0,0-6.14-6.49,24.82,24.82,0,0,0-8.78-3.24A58.28,58.28,0,0,0,1477,340q-16.4,0-27.79,8.71t-17.84,23.46h71.36l1.17-5.32A25.92,25.92,0,0,0,1504.46,361.28Z" style="fill:#00126f"/><path d="M1692.22,390.2l40.36,73.48h-59.37l-23.4-51.05-50,51.05h-67.27l94.76-81.75-37.14-66.39h59.37l19.88,44,42.41-44h64.34Z" style="fill:#00126f"/><path d="M1804.81,463.68h-56.15l42.11-148.14h56.16Zm51.47-171.75h-61.41l11.7-41.31H1868Z" style="fill:#00126f"/><path d="M2071.54,366.3a102.73,102.73,0,0,1-7.9,40.28,100.16,100.16,0,0,1-55.42,54.74,111.28,111.28,0,0,1-42.56,8,131,131,0,0,1-17.54-1.18,65.34,65.34,0,0,1-16.82-4.57,58.24,58.24,0,0,1-14.77-9,40.61,40.61,0,0,1-10.82-14.46l-7.9,23.61h-54.39q2-5.91,4.24-12.1t3.94-12.4l53.53-188.56h56.15l-24.57,86.76a120.1,120.1,0,0,1,30.12-19.63,88.41,88.41,0,0,1,37.44-7.82,92.86,92.86,0,0,1,25,3.39,63.84,63.84,0,0,1,21.5,10.48,53.71,53.71,0,0,1,15.06,17.71Q2071.55,352.13,2071.54,366.3Zm-61.13,8q0-15.33-9.36-22.13t-23.39-6.79a49.89,49.89,0,0,0-22.23,5.17,65.07,65.07,0,0,0-18.57,13.57A66.12,66.12,0,0,0,1924,383.56a55.92,55.92,0,0,0-4.83,22.57q0,15.06,9.36,22.58t23.4,7.52a52.08,52.08,0,0,0,23-5.16,61.42,61.42,0,0,0,18.57-13.72,64.88,64.88,0,0,0,12.43-19.77A61.71,61.71,0,0,0,2010.41,374.26Z" style="fill:#00126f"/><path d="M2125.93,463.68h-56.15l60.54-213.06h56.15Z" style="fill:#00126f"/><path d="M2363.41,368.66a86.55,86.55,0,0,1-1.61,17.11q-1.61,8-4,16.53H2224.78a55.55,55.55,0,0,0-1.46,12.1q0,13.58,8,18.88t20.33,5.31q13.17,0,22.83-4.13t16.39-15.93H2350a78.89,78.89,0,0,1-19,25.52,90.62,90.62,0,0,1-25,15.5,116.31,116.31,0,0,1-28.19,7.67,205.16,205.16,0,0,1-28.62,2.06,193.3,193.3,0,0,1-27.46-2.06,84,84,0,0,1-26.43-8.26,53.35,53.35,0,0,1-20-17.71q-7.89-11.5-7.89-30.1,0-23.31,9.2-42.2a93.32,93.32,0,0,1,25.11-31.87A116.26,116.26,0,0,1,2239,317a143.63,143.63,0,0,1,45.55-7.08,148.47,148.47,0,0,1,28.77,2.8,76.78,76.78,0,0,1,25.26,9.59,53.71,53.71,0,0,1,18,18Q2363.4,351.54,2363.41,368.66Zm-55.86-7.38a21.43,21.43,0,0,0-2.34-10.63,17.91,17.91,0,0,0-6.14-6.49,24.76,24.76,0,0,0-8.77-3.24,58.39,58.39,0,0,0-10.24-.89q-16.38,0-27.79,8.71t-17.83,23.46h71.36q.57-2.65,1.17-5.32A26.57,26.57,0,0,0,2307.55,361.28Z" style="fill:#00126f"/><path d="M2730.44,303.14a75.91,75.91,0,0,1-1.75,17.41h-63.76c.19-1,.34-2,.44-2.95a32.08,32.08,0,0,0,.15-3.24q0-8-2.93-13.28a21.77,21.77,0,0,0-7.75-8.27,32.8,32.8,0,0,0-11.11-4.13,71.09,71.09,0,0,0-13-1.18,73.86,73.86,0,0,0-30.7,6.2,78,78,0,0,0-23.69,16.23,104,104,0,0,0-12.58,16.38,116.46,116.46,0,0,0-9.94,19.77,137.62,137.62,0,0,0-6.44,21.39,98.85,98.85,0,0,0-2.34,20.66q0,10.33,3.22,17.56a31.38,31.38,0,0,0,9.07,11.95,35.94,35.94,0,0,0,13.74,6.79,69.26,69.26,0,0,0,17.55,2.07,73.48,73.48,0,0,0,34.36-8q15.36-8,22.38-27.15h64.34q-6.73,23-20,38.07a103.31,103.31,0,0,1-30.71,23.9,133.29,133.29,0,0,1-37.44,12.39,230.61,230.61,0,0,1-40.21,3.54,161.81,161.81,0,0,1-36.41-4.13,100,100,0,0,1-32.17-13.28,69.59,69.59,0,0,1-22.82-24.05q-8.62-14.9-8.62-36.74a140.25,140.25,0,0,1,12.43-58.28,158.86,158.86,0,0,1,32.9-47.95,121.19,121.19,0,0,1,24-18.3,142.75,142.75,0,0,1,27.64-12.39,178,178,0,0,1,29.83-6.94A216.7,216.7,0,0,1,2638.9,245a219,219,0,0,1,31.44,2.36,102,102,0,0,1,29.69,8.85A58.69,58.69,0,0,1,2722,274.08Q2730.45,285.43,2730.44,303.14Z" style="fill:#00126f"/><path d="M2769.05,463.68H2712.9L2755,315.54h56.15Zm51.47-171.75H2759.1l11.7-41.31h61.42Z" style="fill:#00126f"/><path d="M2958.86,356.56a84.51,84.51,0,0,0-14.63-1.18,63.55,63.55,0,0,0-21.64,3.68A65.27,65.27,0,0,0,2904,369.39a67,67,0,0,0-14.33,15.79,74.87,74.87,0,0,0-9.21,20.07l-16.67,58.43h-56.16L2841,345.93q2.34-7.67,4.24-15.2t3.37-15.19H2903l-7.61,30.39a90.42,90.42,0,0,1,30.13-26.56,80.77,80.77,0,0,1,38.89-9.44h4.1a17.8,17.8,0,0,1,3.51.3Z" style="fill:#00126f"/><path d="M3149.83,359.51v4.28a20.88,20.88,0,0,1-.58,4.28h-58.49a10.11,10.11,0,0,0,.29-2.37v-2.36q0-12.09-7.29-16.52t-18.06-4.43a45.06,45.06,0,0,0-23.17,6.05A57.63,57.63,0,0,0,3025,364.23,79.86,79.86,0,0,0,3010,410q0,14.16,8.17,20.51t21.59,6.34q14.29,0,24.8-7.23t14.88-21.39h58.95q-6.15,17.7-16.67,29.36a84.63,84.63,0,0,1-24.28,18.74,106.45,106.45,0,0,1-30,10,186.76,186.76,0,0,1-33.49,2.95,212.29,212.29,0,0,1-29-2.06,91.16,91.16,0,0,1-27.19-8,52.54,52.54,0,0,1-20.18-16.82q-7.91-10.92-7.9-28.62a89.86,89.86,0,0,1,10.09-42.5,102.93,102.93,0,0,1,27-32.75,127.41,127.41,0,0,1,39.19-21.1,144,144,0,0,1,46.5-7.53,158.68,158.68,0,0,1,25.3,2.21,93.9,93.9,0,0,1,25.15,7.68,53,53,0,0,1,19.16,15.05Q3149.84,344.46,3149.83,359.51Z" style="fill:#00126f"/><path d="M3340.81,433.28q-2.36,7.68-4.24,15.2t-3.37,15.2h-54.39l6.14-26.56a132,132,0,0,1-32.47,23.31,84.45,84.45,0,0,1-38.6,8.85,96.23,96.23,0,0,1-20.47-2.21,59.75,59.75,0,0,1-18.72-7.38,40.39,40.39,0,0,1-13.75-13.87q-5.27-8.7-5.26-21.69a66.19,66.19,0,0,1,1.17-11.95q1.17-6.35,2.63-11.65l23.69-85h56.15l-21.64,75.84a57.17,57.17,0,0,0-2.19,8.85,53.92,53.92,0,0,0-.73,8.85q0,13.29,7.45,18.6T3242,433a47.31,47.31,0,0,0,20.47-4.43,59.89,59.89,0,0,0,16.67-11.66,70.58,70.58,0,0,0,12.43-16.67,98.58,98.58,0,0,0,8-19.48L3318,315.54h56.15Z" style="fill:#00126f"/><path d="M3420.06,463.68h-56.15L3406,315.54h56.16Zm51.48-171.75h-61.42l11.7-41.31h61.41Z" style="fill:#00126f"/><path d="M3604.61,350.65H3558.4q-1.18,4.44-4.1,13.43t-5.85,19q-2.92,10-5.12,19.32a67.59,67.59,0,0,0-2.19,14.32,13.44,13.44,0,0,0,1.76,7.23,11.83,11.83,0,0,0,4.53,4.28,18.21,18.21,0,0,0,6.43,1.91,61,61,0,0,0,7.46.45,95.29,95.29,0,0,0,10.53-.59l10.53-1.18-10,34.82q-9.36,1.47-18.71,2.51a172.83,172.83,0,0,1-18.72,1q-8.49,0-18-.89a61.7,61.7,0,0,1-17.54-4.13,32.35,32.35,0,0,1-13.31-9.74q-5.26-6.48-5.27-17.7a61.24,61.24,0,0,1,.88-10.18,90.44,90.44,0,0,1,2.34-10.18l18.13-63.75h-33.92l9.94-35.11h33.93l8.48-30.1,62-20.66-14.33,50.76h46.21Z" style="fill:#00126f"/><path d="M3779.2,347.41a74.18,74.18,0,0,1-.88,12.1h-56.15a26.57,26.57,0,0,0,.59-5,11.88,11.88,0,0,0-2-7.38,13.71,13.71,0,0,0-5.23-4.13,23.15,23.15,0,0,0-7-1.92,66,66,0,0,0-7.55-.44,47.63,47.63,0,0,0-7.85.74,33.73,33.73,0,0,0-8.29,2.51,19.16,19.16,0,0,0-6.54,4.72,11.16,11.16,0,0,0-2.61,7.67q0,6.8,8.6,9.89a206.92,206.92,0,0,0,22.59,6.34l10.79,2.36q9.61,2.07,18.51,4.72a72.76,72.76,0,0,1,15.74,6.64A36,36,0,0,1,3763,396a23,23,0,0,1,4.23,14q0,15.93-8.48,27.15a64,64,0,0,1-22.37,18.3,118.46,118.46,0,0,1-31.59,10.47,190,190,0,0,1-35.83,3.39q-10.53,0-23.39-1.18a96.43,96.43,0,0,1-24.28-5.31,50.43,50.43,0,0,1-19-11.8q-7.61-7.67-7.6-20.95,0-3.54.14-6.94a29.68,29.68,0,0,1,.74-5.75h57.32a31,31,0,0,0-.59,6.19,13.17,13.17,0,0,0,2.05,7.68,13.63,13.63,0,0,0,5.41,4.57A25.28,25.28,0,0,0,3667,438a51.53,51.53,0,0,0,7.75.59,80.42,80.42,0,0,0,10.53-.73,37.32,37.32,0,0,0,10.24-2.81,20.88,20.88,0,0,0,7.75-5.75q3.08-3.69,3.07-9.89,0-5.31-7-8.41a112.56,112.56,0,0,0-17.55-5.75l-11.4-2.66q-10.53-2.35-20.48-5.31a79.49,79.49,0,0,1-17.54-7.38,40.81,40.81,0,0,1-12.29-10.62q-4.68-6.19-4.68-15.35a36.37,36.37,0,0,1,8.34-23.75,67,67,0,0,1,21.49-17,111.9,111.9,0,0,1,29.1-10,155.5,155.5,0,0,1,31.15-3.25q9.36,0,22.08,1a106.06,106.06,0,0,1,24.13,4.73,51,51,0,0,1,19.45,11.21Q3779.2,334.43,3779.2,347.41Z" style="fill:#00126f"/><path d="M531.3,303.1a76.26,76.26,0,0,1-1.89,16.5,100.29,100.29,0,0,1-5.26,16.65,82.82,82.82,0,0,1-8.32,15.32,65.67,65.67,0,0,1-11.09,12.52A78.9,78.9,0,0,1,484,377.5a108.55,108.55,0,0,1-23.5,7.21,180.9,180.9,0,0,1-26.28,3q-13.87.6-29.06.59H369l-21.32,75.43H286.32L346.76,251H457.14a145.12,145.12,0,0,1,28,2.65,74.45,74.45,0,0,1,23.65,8.7,46.58,46.58,0,0,1,16.35,16.06Q531.31,288.38,531.3,303.1Zm-64.82,7.66a16.17,16.17,0,0,0-2.77-9.72,18.18,18.18,0,0,0-7.3-5.89,35.63,35.63,0,0,0-10.22-2.8,87.88,87.88,0,0,0-11.24-.74H396.41l-15.77,56h40.88q19.56,0,32.26-9T466.48,310.76Z" style="fill:#00126f"/><path d="M731,294.56H621.53L609,338.76H712.34l-12.56,43.6H596.41l-23.06,81.32H512L572.47,251H743.29Z" style="fill:#00126f"/><path d="M975.43,303.4a76.26,76.26,0,0,1-1.75,17.38H910c.19-1,.34-2,.44-2.94a32.23,32.23,0,0,0,.15-3.24q0-8-2.92-13.26a21.7,21.7,0,0,0-7.74-8.25,32.54,32.54,0,0,0-11.1-4.13,70.76,70.76,0,0,0-13-1.18A73.7,73.7,0,0,0,845.2,294a78.06,78.06,0,0,0-23.65,16.21A104.23,104.23,0,0,0,809,326.53a116.87,116.87,0,0,0-9.93,19.74,138.73,138.73,0,0,0-6.42,21.36,98.34,98.34,0,0,0-2.34,20.62q0,10.32,3.21,17.53a31.39,31.39,0,0,0,9.06,11.93,35.91,35.91,0,0,0,13.72,6.78,69,69,0,0,0,17.52,2.06,73.42,73.42,0,0,0,34.31-7.95q15.33-8,22.34-27.11H954.7q-6.72,23-20,38A103.17,103.17,0,0,1,904,453.37a133.29,133.29,0,0,1-37.38,12.37,229.93,229.93,0,0,1-40.15,3.54,161.86,161.86,0,0,1-36.35-4.13A99.93,99.93,0,0,1,758,451.89a69.45,69.45,0,0,1-22.78-24q-8.61-14.88-8.61-36.68A140,140,0,0,1,739.06,333a158.58,158.58,0,0,1,32.85-47.88,121.17,121.17,0,0,1,23.94-18.27,142.33,142.33,0,0,1,27.6-12.37,178.34,178.34,0,0,1,29.78-6.93,216,216,0,0,1,30.81-2.2,219.54,219.54,0,0,1,31.38,2.35,101.53,101.53,0,0,1,29.64,8.84A58.69,58.69,0,0,1,967,274.38Q975.42,285.72,975.43,303.4Z" style="fill:#00126f"/></g></g></svg>